<?xml version="1.0" encoding="utf-8"?>
<svg height="100pt" viewBox="0 0 100 100" width="100pt" xmlns="http://www.w3.org/2000/svg">
  <rect width="99.922" height="99.807" style="fill: rgb(13, 78, 146);" rx="16.048" ry="16.048" x="-0.155"/>
  <path d="M 77.66 24.598 L 77.622 12.032 L 19.345 12.32 L -0.1 38.764 L 0.004 94.822 C 0.051 97.137 2.293 99.913 5.512 99.867 L 65.05 99.594 L 77.843 85.575 L 77.811 74.849 L 71.675 74.849 L 71.689 79.446 L 25.671 79.446 L 25.487 18.16 L 71.505 18.16 L 71.524 24.598 C 64.535 26.021 59.276 32.211 59.298 39.61 C 59.308 43.044 60.468 46.206 62.393 48.763 L 62.475 75.978 L 74.721 67.806 L 87.018 75.978 L 86.936 48.763 C 88.846 46.206 89.987 43.044 89.977 39.61 C 89.955 32.211 84.657 26.021 77.66 24.598 Z" style="fill: rgba(0, 0, 0, 0.58);" transform="matrix(0.999995, 0.003007, -0.003007, 0.999995, 0.168423, -0.13486)"/>
  <path style="fill: rgb(117, 117, 117);"/>
  <path d="M 74.686 49.142 C 69.61 49.142 65.483 45.019 65.483 39.949 C 65.483 34.879 69.61 30.756 74.686 30.756 C 79.762 30.756 83.89 34.879 83.89 39.949 C 83.89 45.019 79.762 49.142 74.686 49.142 Z" style="fill: rgb(117, 117, 117);"/>
  <path d="M 80.822 64.867 L 74.686 60.782 L 68.55 64.867 L 68.55 53.982 C 70.431 54.806 72.505 55.271 74.686 55.271 C 76.867 55.271 78.941 54.806 80.822 53.982 L 80.822 64.867 Z" style="fill: rgb(117, 117, 117);"/>
  <path d="M 31.736 24.628 L 51.677 24.628 L 51.677 30.756 L 31.736 30.756 Z M 31.736 24.628" style="fill: rgb(255, 255, 255);"/>
  <path d="M 31.736 49.142 L 51.677 49.142 L 51.677 55.271 L 31.736 55.271 Z M 31.736 49.142" style="fill: rgb(255, 255, 255);"/>
  <path d="M 31.736 61.399 L 56.279 61.399 L 56.279 67.528 L 31.736 67.528 Z M 31.736 61.399" style="fill: rgb(255, 255, 255);"/>
  <path d="M 77.713 24.846 L 77.713 12.279 L 19.424 12.279 L 19.424 85.822 L 77.713 85.822 L 77.713 75.096 L 71.577 75.096 L 71.577 79.693 L 25.559 79.693 L 25.559 18.407 L 71.577 18.407 L 71.577 24.846 C 64.584 26.268 59.306 32.458 59.306 39.857 C 59.306 43.291 60.456 46.453 62.374 49.01 L 62.374 76.226 L 74.645 68.053 L 86.916 76.226 L 86.916 49.01 C 88.834 46.453 89.984 43.291 89.984 39.857 C 89.984 32.458 84.706 26.268 77.713 24.846 Z" style="fill: rgb(255, 255, 255);"/>
  <path style="fill: rgb(255, 255, 255);"/>
  <path d="M 74.645 49.05 C 69.569 49.05 65.441 44.927 65.441 39.857 C 65.441 34.787 69.569 30.664 74.645 30.664 C 79.721 30.664 83.849 34.787 83.849 39.857 C 83.849 44.927 79.721 49.05 74.645 49.05 Z" style="fill: rgb(13, 78, 146);"/>
  <path d="M 80.781 64.775 L 74.645 60.69 L 68.509 64.775 L 68.509 53.89 C 70.39 54.714 72.464 55.179 74.645 55.179 C 76.826 55.179 78.9 54.714 80.781 53.89 L 80.781 64.775 Z" style="fill: rgb(13, 78, 146);"/>
</svg>