<?xml version="1.0" encoding="utf-8"?>
<svg height="300pt" viewBox="0 0 300 300" width="300pt" xmlns="http://www.w3.org/2000/svg">
  <rect width="300" height="300" style="fill: rgb(13, 78, 146);" rx="16.048" ry="16.048"/>
  <path d="M 233.626 73.938 L 233.512 36.165 L 58.544 37.03 L 0.164 116.517 L 0.478 285.017 C 0.619 291.976 7.353 300.321 17.017 300.183 L 195.767 299.36 L 234.178 257.221 L 234.081 224.983 L 215.66 224.983 L 215.701 238.799 L 77.54 238.799 L 76.985 54.586 L 215.147 54.586 L 215.205 73.938 C 194.222 78.215 178.431 96.821 178.498 119.06 C 178.529 129.382 182.011 138.887 187.791 146.573 L 188.038 228.377 L 224.806 203.812 L 261.723 228.377 L 261.477 146.573 C 267.211 138.887 270.636 129.382 270.605 119.06 C 270.538 96.821 254.635 78.215 233.626 73.938 Z" style="fill: rgba(0, 0, 0, 0.58);" transform="matrix(0.999995, 0.00301, -0.00301, 0.999995, 0.50682, -0.406746)"/>
  <path style="fill: rgb(117, 117, 117);"/>
  <path d="M 224.698 147.712 C 209.459 147.712 197.066 135.32 197.066 120.08 C 197.066 104.841 209.459 92.448 224.698 92.448 C 239.938 92.448 252.331 104.841 252.331 120.08 C 252.331 135.32 239.938 147.712 224.698 147.712 Z" style="fill: rgb(117, 117, 117);"/>
  <path d="M 243.12 194.978 L 224.698 182.7 L 206.277 194.978 L 206.277 162.261 C 211.924 164.737 218.15 166.134 224.698 166.134 C 231.247 166.134 237.473 164.737 243.12 162.261 L 243.12 194.978 Z" style="fill: rgb(117, 117, 117);"/>
  <path d="M 95.749 74.027 L 155.618 74.027 L 155.618 92.448 L 95.749 92.448 Z M 95.749 74.027" style="fill: rgb(255, 255, 255);"/>
  <path d="M 95.749 147.712 L 155.618 147.712 L 155.618 166.134 L 95.749 166.134 Z M 95.749 147.712" style="fill: rgb(255, 255, 255);"/>
  <path d="M 95.749 184.555 L 169.434 184.555 L 169.434 202.976 L 95.749 202.976 Z M 95.749 184.555" style="fill: rgb(255, 255, 255);"/>
  <path d="M 233.785 74.681 L 233.785 36.907 L 58.782 36.907 L 58.782 257.964 L 233.785 257.964 L 233.785 225.726 L 215.364 225.726 L 215.364 239.542 L 77.203 239.542 L 77.203 55.328 L 215.364 55.328 L 215.364 74.681 C 194.368 78.958 178.521 97.564 178.521 119.803 C 178.521 130.125 181.975 139.63 187.732 147.316 L 187.732 229.12 L 224.574 204.555 L 261.417 229.12 L 261.417 147.316 C 267.174 139.63 270.628 130.125 270.628 119.803 C 270.628 97.564 254.781 78.958 233.785 74.681 Z" style="fill: rgb(255, 255, 255);"/>
  <path style="fill: rgb(255, 255, 255);"/>
  <path d="M 224.574 147.435 C 209.335 147.435 196.942 135.043 196.942 119.803 C 196.942 104.564 209.335 92.171 224.574 92.171 C 239.814 92.171 252.207 104.564 252.207 119.803 C 252.207 135.043 239.814 147.435 224.574 147.435 Z" style="fill: rgb(13, 78, 146);"/>
  <path d="M 242.996 194.701 L 224.574 182.423 L 206.153 194.701 L 206.153 161.984 C 211.8 164.46 218.026 165.857 224.574 165.857 C 231.123 165.857 237.349 164.46 242.996 161.984 L 242.996 194.701 Z" style="fill: rgb(13, 78, 146);"/>
</svg>