<?xml version="1.0" encoding="utf-8"?>
<svg height="300pt" viewBox="0 0 300 300" width="300pt" xmlns="http://www.w3.org/2000/svg">
  <rect width="300" height="300" style="fill: rgb(13, 78, 146);" rx="16.048" ry="16.048"/>
  <path d="M 219.909 74.958 L 219.909 37.184 L 44.906 37.184 L -0.148 87.393 L -0.054 284.253 C 0.066 291.212 5.812 300.047 15.477 299.909 L 184.751 300.374 L 219.909 258.241 L 219.909 226.003 L 201.488 226.003 L 201.488 239.819 L 63.327 239.819 L 63.327 55.605 L 201.488 55.605 L 201.488 74.958 C 180.492 79.235 164.645 97.841 164.645 120.08 C 164.645 130.402 168.099 139.907 173.856 147.593 L 173.856 229.397 L 210.698 204.832 L 247.541 229.397 L 247.541 147.593 C 253.298 139.907 256.752 130.402 256.752 120.08 C 256.752 97.841 240.905 79.235 219.909 74.958 Z" style="fill: rgb(60, 60, 60);"/>
  <path style="fill: rgb(117, 117, 117);"/>
  <path d="M 210.698 147.712 C 195.459 147.712 183.066 135.32 183.066 120.08 C 183.066 104.841 195.459 92.448 210.698 92.448 C 225.938 92.448 238.331 104.841 238.331 120.08 C 238.331 135.32 225.938 147.712 210.698 147.712 Z" style="fill: rgb(117, 117, 117);"/>
  <path d="M 229.12 194.978 L 210.698 182.7 L 192.277 194.978 L 192.277 162.261 C 197.924 164.737 204.15 166.134 210.698 166.134 C 217.247 166.134 223.473 164.737 229.12 162.261 L 229.12 194.978 Z" style="fill: rgb(117, 117, 117);"/>
  <path d="M 81.749 74.027 L 141.618 74.027 L 141.618 92.448 L 81.749 92.448 Z M 81.749 74.027" style="fill: rgb(255, 255, 255);"/>
  <path d="M 81.749 147.712 L 141.618 147.712 L 141.618 166.134 L 81.749 166.134 Z M 81.749 147.712" style="fill: rgb(255, 255, 255);"/>
  <path d="M 81.749 184.555 L 155.434 184.555 L 155.434 202.976 L 81.749 202.976 Z M 81.749 184.555" style="fill: rgb(255, 255, 255);"/>
  <path d="M 219.785 74.681 L 219.785 36.907 L 44.782 36.907 L 44.782 257.964 L 219.785 257.964 L 219.785 225.726 L 201.364 225.726 L 201.364 239.542 L 63.203 239.542 L 63.203 55.328 L 201.364 55.328 L 201.364 74.681 C 180.368 78.958 164.521 97.564 164.521 119.803 C 164.521 130.125 167.975 139.63 173.732 147.316 L 173.732 229.12 L 210.574 204.555 L 247.417 229.12 L 247.417 147.316 C 253.174 139.63 256.628 130.125 256.628 119.803 C 256.628 97.564 240.781 78.958 219.785 74.681 Z" style="fill: rgb(255, 255, 255);"/>
  <path style="fill: rgb(255, 255, 255);"/>
  <path d="M 210.574 147.435 C 195.335 147.435 182.942 135.043 182.942 119.803 C 182.942 104.564 195.335 92.171 210.574 92.171 C 225.814 92.171 238.207 104.564 238.207 119.803 C 238.207 135.043 225.814 147.435 210.574 147.435 Z" style="fill: rgb(13, 78, 146);"/>
  <path d="M 228.996 194.701 L 210.574 182.423 L 192.153 194.701 L 192.153 161.984 C 197.8 164.46 204.026 165.857 210.574 165.857 C 217.123 165.857 223.349 164.46 228.996 161.984 L 228.996 194.701 Z" style="fill: rgb(13, 78, 146);"/>
</svg>